<svg width="45" height="45" viewBox="0 0 45 45" fill="none" xmlns="http://www.w3.org/2000/svg">
<g clip-path="url(#clip0)">
<path d="M6.56623 15.0071C5.01331 15.0071 3.75439 16.266 3.75439 17.8189V30.9408C3.75439 32.4938 5.01331 33.7527 6.56623 33.7527C8.11916 33.7527 9.37807 32.4938 9.37807 30.9408V17.8189C9.37807 16.266 8.11916 15.0071 6.56623 15.0071Z" fill="url(#paint0_linear)"/>
<path d="M38.4337 15.0071C36.8807 15.0071 35.6218 16.266 35.6218 17.8189V30.9408C35.6218 32.4938 36.8807 33.7527 38.4337 33.7527C39.9866 33.7527 41.2455 32.4938 41.2455 30.9408V17.8189C41.2455 16.266 39.9867 15.0071 38.4337 15.0071Z" fill="url(#paint1_linear)"/>
<path d="M32.81 15.0071H12.1899C11.6722 15.0071 11.2526 15.4267 11.2526 15.9444V30.9408C11.2521 33.1681 12.8194 35.088 15.0017 35.5335V42.1882C15.0017 43.7411 16.2606 45 17.8136 45C19.3665 45 20.6254 43.7411 20.6254 42.1882V35.6272H24.3745V42.1882C24.3745 43.7411 25.6335 45 27.1864 45C28.7393 45 29.9982 43.7411 29.9982 42.1882V35.5335C32.1806 35.088 33.7478 33.1681 33.7474 30.9408V15.9444C33.7473 15.4267 33.3276 15.0071 32.81 15.0071Z" fill="url(#paint2_linear)"/>
<path d="M29.314 3.89466L31.5991 1.61145C31.9714 1.2518 31.9816 0.658497 31.6221 0.286104C31.2624 -0.0862012 30.6691 -0.096482 30.2967 0.263082C30.2889 0.270639 30.2813 0.278284 30.2737 0.286104L27.6119 2.94804C24.3517 1.53184 20.65 1.53184 17.3899 2.94804L14.728 0.284259C14.3557 -0.0753932 13.7623 -0.0650246 13.4027 0.307281C13.0519 0.670535 13.0519 1.24635 13.4027 1.60951L15.6859 3.89457C12.9024 5.73633 11.2354 8.85756 11.2526 12.1951C11.2526 12.7128 11.6722 13.1324 12.1899 13.1324H32.8101C33.3277 13.1324 33.7474 12.7128 33.7474 12.1951C33.7645 8.85765 32.0975 5.73642 29.314 3.89466Z" fill="url(#paint3_linear)"/>
<path d="M17.8135 9.38341C18.3312 9.38341 18.7508 8.96376 18.7508 8.4461C18.7508 7.92844 18.3312 7.50879 17.8135 7.50879C17.2959 7.50879 16.8762 7.92844 16.8762 8.4461C16.8762 8.96376 17.2959 9.38341 17.8135 9.38341Z" fill="#FAFAFA"/>
<path d="M27.1863 9.38341C27.704 9.38341 28.1236 8.96376 28.1236 8.4461C28.1236 7.92844 27.704 7.50879 27.1863 7.50879C26.6687 7.50879 26.249 7.92844 26.249 8.4461C26.249 8.96376 26.6687 9.38341 27.1863 9.38341Z" fill="#FAFAFA"/>
</g>
<defs>
<linearGradient id="paint0_linear" x1="6.56623" y1="15.0071" x2="6.56623" y2="33.7527" gradientUnits="userSpaceOnUse">
<stop stop-color="#1762A7"/>
<stop offset="1" stop-color="#BC3A80"/>
</linearGradient>
<linearGradient id="paint1_linear" x1="38.4337" y1="15.0071" x2="38.4337" y2="33.7527" gradientUnits="userSpaceOnUse">
<stop stop-color="#1762A7"/>
<stop offset="1" stop-color="#BC3A80"/>
</linearGradient>
<linearGradient id="paint2_linear" x1="22.5" y1="15.0071" x2="22.5" y2="45" gradientUnits="userSpaceOnUse">
<stop stop-color="#1762A7"/>
<stop offset="1" stop-color="#BC3A80"/>
</linearGradient>
<linearGradient id="paint3_linear" x1="22.5" y1="0" x2="22.5" y2="13.1324" gradientUnits="userSpaceOnUse">
<stop stop-color="#1762A7"/>
<stop offset="1" stop-color="#BC3A80"/>
</linearGradient>
<clipPath id="clip0">
<rect width="45" height="45" fill="white"/>
</clipPath>
</defs>
</svg>
