 <svg class="mt-3" width="37" height="45" viewBox="0 0 37 45" fill="none" xmlns="http://www.w3.org/2000/svg">
            <path d="M30.9349 23.78C30.9153 20.0929 32.547 17.3101 35.8499 15.2606C34.0019 12.5581 31.2101 11.0712 27.5239 10.7799C24.0343 10.4986 20.2202 12.8595 18.8244 12.8595C17.3499 12.8595 13.9684 10.8803 11.3143 10.8803C5.82917 10.9707 0 15.351 0 24.2622C0 26.8944 0.471838 29.6136 1.41552 32.42C2.67375 36.107 7.2152 45.1488 11.9532 44.9981C14.4304 44.9379 16.1801 43.1998 19.4044 43.1998C22.5303 43.1998 24.1522 44.9981 26.9145 44.9981C31.6918 44.9278 35.8007 36.7098 37 33.0127C30.5909 29.9284 30.9349 23.9709 30.9349 23.78ZM25.3711 7.28369C28.0547 4.02863 27.809 1.06493 27.7303 0C25.3613 0.140651 22.6188 1.64762 21.0558 3.50622C19.3355 5.49542 18.3231 7.9568 18.5393 10.7296C21.1049 10.9306 23.4445 9.58433 25.3711 7.28369Z" fill="url(#paint0_linear)"/>
            <defs>
            <linearGradient id="paint0_linear" x1="18.5" y1="0" x2="18.5" y2="45" gradientUnits="userSpaceOnUse">
            <stop stop-color="#1762A7"/>
            <stop offset="1" stop-color="#BC3A80"/>
            </linearGradient>
            </defs>
            </svg>