<svg width="60" height="60" viewBox="0 0 60 60" fill="none" xmlns="http://www.w3.org/2000/svg">
              <path d="M25.6004 16.3598L24.249 15.0094L26.1674 13.0901L27.5188 14.4405L25.6004 16.3598ZM22.3209 24.0235L23.6825 22.6847L21.4978 20.4623L24.6547 17.3054L23.3043 15.955L20.0518 19.2066C19.7166 19.5418 19.5324 19.9881 19.5324 20.4614C19.5324 20.9314 19.7138 21.3735 20.0411 21.7059L22.3209 24.0235ZM59.6419 29.5562C59.6419 30.7126 59.191 31.8009 58.3726 32.6184L45.594 45.3974C46.017 46.0656 46.2721 46.8518 46.2721 47.7009C46.2721 48.8574 45.8211 49.9457 45.0028 50.7631L38.6321 57.1352L37.6772 56.1802L33.8572 60.0001L29.6418 55.7848L33.4618 51.9648L32.5068 51.0098L38.8774 44.6383C39.6958 43.8208 40.7827 43.3699 41.9401 43.3699C42.7883 43.3699 43.574 43.6241 44.2436 44.047L57.0222 31.2684C57.4796 30.811 57.7319 30.2024 57.7319 29.5562C57.7319 28.2216 56.645 27.1351 55.3099 27.1351C54.6627 27.1351 54.0542 27.3874 53.5977 27.8434L48.819 32.6235C49.0158 33.0208 49.137 33.4628 49.137 33.9357C49.137 34.7205 48.819 35.4885 48.2641 36.0434L44.6754 39.632C44.1126 40.1953 43.3642 40.5049 42.5677 40.5049C42.0949 40.5049 41.6529 40.3837 41.2556 40.1869L26.927 54.5164C26.1082 55.3339 25.0217 55.7848 23.8643 55.7848C21.4759 55.7848 19.5324 53.8421 19.5324 51.4537C19.5324 50.2973 19.9833 49.2085 20.8017 48.3911L24.3558 44.836C24.9415 44.2512 25.2632 43.4739 25.2632 42.6457C25.2623 40.9386 23.8727 39.55 22.1651 39.55C21.3384 39.55 20.561 39.8717 19.9754 40.4569L8.97948 51.4537C8.03242 52.3994 6.77573 52.9198 5.43978 52.9198C2.6788 52.9198 0.432617 50.6736 0.432617 47.9136C0.432617 46.5757 0.953011 45.3181 1.89961 44.3725L12.9295 33.3425L11.4971 31.9101L15.317 28.0901L14.362 27.1351L17.226 24.2711C16.2547 23.2303 15.7124 21.8883 15.7124 20.4614C15.7124 18.9678 16.2939 17.5633 17.351 16.5062L29.0823 4.77494L30.9922 6.68492L37.6772 0L41.8925 4.21538L35.2076 10.9003L36.7222 12.4149L43.4071 5.72993L47.6225 9.94531L40.9375 16.6302L42.8149 18.5076L31.085 30.2379C30.0526 31.2703 28.6803 31.8508 27.2208 31.8755L27.0319 31.8783C25.6596 31.8783 24.3227 31.3561 23.3024 30.4449L20.4874 33.2605L19.5324 32.3055L15.7124 36.1254L14.2799 34.6929L3.24955 45.7238C2.66434 46.3086 2.34259 47.0859 2.34259 47.9136C2.34259 49.6212 3.73218 51.0098 5.43978 51.0098C6.26653 51.0098 7.04386 50.6881 7.62954 50.1024L18.625 39.106C19.5716 38.1604 20.8292 37.64 22.1651 37.64C24.9261 37.64 27.1723 39.8862 27.1723 42.6457C27.1723 43.984 26.6519 45.2417 25.7053 46.1869L22.1521 49.7415C21.6946 50.1989 21.4424 50.8074 21.4424 51.4537C21.4424 52.7878 22.5288 53.8748 23.8643 53.8748C24.5116 53.8748 25.1201 53.6225 25.5766 53.166L39.9052 38.8365C39.7074 38.4392 39.5871 37.9972 39.5871 37.5243C39.5871 36.7396 39.9052 35.9715 40.4601 35.4166L44.0487 31.828C44.6111 31.2642 45.36 30.9551 46.1564 30.9551C46.6292 30.9551 47.0713 31.0763 47.4686 31.2731L52.2473 26.4935C53.0656 25.676 54.1526 25.2251 55.3099 25.2251C57.6983 25.2251 59.6419 27.1677 59.6419 29.5562ZM38.0726 13.7653L39.5871 15.2798L44.9216 9.94531L43.4071 8.43076L38.0726 13.7653ZM32.3427 8.03533L33.8572 9.54989L39.1917 4.21538L37.6772 2.70083L32.3427 8.03533ZM29.0823 7.47577L27.5677 8.99032L38.5995 20.0221L40.1141 18.5076L29.0823 7.47577ZM17.6406 20.4614C17.6406 21.4336 18.0332 22.3513 18.715 23.0447L24.4743 28.8674C25.1621 29.5664 26.2173 29.9684 27.1723 29.9684V30.9234L27.1616 29.9674L27.1867 29.9656C28.1501 29.9492 29.0543 29.5673 29.7337 28.8875L37.2482 21.3725L26.2173 10.3407L18.7014 17.8566C18.0052 18.5523 17.6406 19.477 17.6406 20.4614ZM17.0628 27.1351L20.4874 30.5596L21.9511 29.0964L18.5555 25.6434L17.0628 27.1351ZM14.1979 31.9101L15.7124 33.4246L18.182 30.9551L16.6674 29.4405L14.1979 31.9101ZM43.325 38.2816L44.4441 37.1625L42.9296 35.6479L41.8105 36.7671C41.6118 36.9666 41.4971 37.2427 41.4971 37.5243C41.4971 38.1147 41.9774 38.595 42.5677 38.595C42.854 38.595 43.1226 38.484 43.325 38.2816ZM47.227 33.9357C47.227 33.3453 46.7467 32.865 46.1564 32.865C45.8701 32.865 45.6015 32.9756 45.3991 33.1784L44.28 34.2975L45.7946 35.8121L46.9137 34.6929C47.1123 34.4934 47.227 34.2173 47.227 33.9357ZM36.3267 54.8298L34.8122 53.3152L32.3427 55.7848L33.8572 57.2993L36.3267 54.8298ZM38.6321 54.4344L39.5508 53.5157C39.3778 51.6995 37.9416 50.2637 36.1262 50.0912L35.2076 51.0098L38.6321 54.4344ZM44.3621 47.7009C44.3621 46.3664 43.2751 45.2799 41.9401 45.2799C41.2929 45.2799 40.6843 45.5322 40.2278 45.9882L37.721 48.4951C39.3083 49.0733 40.5668 50.3328 41.1455 51.92L43.6524 49.4132C44.1098 48.9558 44.3621 48.3472 44.3621 47.7009Z" fill="url(#paint0_linear)"/>
              <defs>
              <linearGradient id="paint0_linear" x1="30.0372" y1="60.0001" x2="30.0372" y2="-9.65599e-05" gradientUnits="userSpaceOnUse">
              <stop stop-color="#1762A7"/>
              <stop offset="1" stop-color="#BC3A80"/>
              </linearGradient>
              </defs>
              </svg> 