<svg width="52" height="60" viewBox="0 0 52 60" fill="none" xmlns="http://www.w3.org/2000/svg">
<path d="M12.9083 4H6.25242C4.45898 4 3 5.4591 3 7.25254C3 9.04598 4.45898 10.5048 6.2523 10.5048H12.9082C14.7016 10.5048 16.1605 9.04586 16.1605 7.25254C16.1605 5.45922 14.7016 4 12.9083 4ZM12.9083 8.74703H6.25242C5.42824 8.74703 4.75781 8.07648 4.75781 7.25242C4.75781 6.42824 5.42836 5.7577 6.25242 5.7577H12.9083C13.7325 5.7577 14.4029 6.42824 14.4029 7.25242C14.4028 8.07648 13.7324 8.74703 12.9083 8.74703Z" fill="url(#paint0_linear)"/>
<path d="M15.8048 14.4402C13.1762 14.4403 11.0376 16.5789 11.0376 19.2074C11.0376 21.836 13.1763 23.9746 15.8048 23.9746C18.4333 23.9746 20.572 21.836 20.572 19.2074C20.572 16.5787 18.4333 14.4402 15.8048 14.4402ZM15.8047 22.217C14.1453 22.217 12.7953 20.8669 12.7953 19.2076C12.7954 17.5481 14.1454 16.1982 15.8047 16.1982C17.4639 16.1982 18.814 17.5484 18.814 19.2076C18.814 20.8669 17.464 22.217 15.8047 22.217Z" fill="url(#paint1_linear)"/>
<path d="M51.0434 9.84352C51.5287 9.84352 51.9223 9.45012 51.9223 8.96461V5.8773C51.9223 2.63684 49.2859 0.00046875 46.0453 0.00046875H27.1307C27.1246 0.00046875 27.1187 0 27.1126 0H4.49695C2.0175 0 0.000234246 2.01727 0.000234246 4.49672V42.2432V46.1972C0.000234246 46.6827 0.39375 47.0761 0.87914 47.0761C1.36453 47.0761 1.75805 46.6827 1.75805 46.1972V42.2432V4.49672C1.75805 2.98641 2.98676 1.75781 4.49695 1.75781C4.73531 1.75781 27.0656 1.7577 27.1226 1.75805C28.6125 1.75805 29.8515 2.99063 29.8515 4.49672C29.8465 57.9057 29.8643 55.5125 29.8375 55.777C29.8305 55.845 29.8198 55.9178 29.8073 55.9855C29.8065 55.9901 29.8057 55.9948 29.8049 55.9993C29.6143 57.0061 28.8533 57.8944 27.6769 58.1786C27.2113 58.2764 27.002 58.2214 25.2987 58.2373V57.2746C25.2987 56.0146 24.2736 54.9894 23.0135 54.9894H21.7438C21.2584 54.9894 20.8649 55.3828 20.8649 55.8683C20.8649 56.3538 21.2584 56.7472 21.7438 56.7472H23.0135C23.2993 56.7472 23.5409 56.9888 23.5409 57.2746V58.2373H8.06859V57.2746C8.06859 56.9888 8.31012 56.7472 8.59594 56.7472H17.6421C18.1275 56.7472 18.521 56.3538 18.521 55.8683C18.521 55.3828 18.1275 54.9894 17.6421 54.9894H8.59594C7.33594 54.9894 6.31078 56.0146 6.31078 57.2746V58.2373H4.49672C2.98641 58.2373 1.75781 57.0086 1.75781 55.4984C1.75781 54.9683 1.75781 50.7993 1.75781 50.299C1.75781 49.8135 1.3643 49.4201 0.878906 49.4201C0.393516 49.4201 0 49.8135 0 50.299C0 50.8054 0 54.9512 0 55.4984C0 57.9779 2.01727 59.9951 4.49672 59.9951C29.2697 59.9951 27.3605 60.0309 27.9741 59.9113H46.0448C49.2853 59.9113 51.9218 57.2749 51.9218 54.0345V13.0661C51.9218 12.5805 51.5283 12.1871 51.0429 12.1871C50.5574 12.1871 50.164 12.5805 50.164 13.0661V54.0342C50.164 56.3055 48.3161 58.1532 46.0448 58.1532H30.743C31.0631 57.7159 31.2959 57.2228 31.433 56.747H46.0452C47.5412 56.747 48.7581 55.53 48.7581 54.0342V5.8773C48.7581 4.38129 47.541 3.16453 46.0452 3.16453H31.4077C31.2478 2.65008 30.997 2.17559 30.6756 1.75828H46.0452C48.3166 1.75828 50.1643 3.60621 50.1643 5.8773V8.96461C50.1644 9.45012 50.5578 9.84352 51.0434 9.84352ZM31.6092 4.92223H46.0452C46.572 4.92223 47.0004 5.35066 47.0004 5.8773V54.0342C47.0004 54.5609 46.572 54.9893 46.0452 54.9893H31.6092V4.92223Z" fill="url(#paint2_linear)"/>
<defs>
<linearGradient id="paint0_linear" x1="9.58025" y1="4" x2="9.58025" y2="10.5048" gradientUnits="userSpaceOnUse">
<stop stop-color="#1762A7"/>
<stop offset="1" stop-color="#BC3A80"/>
</linearGradient>
<linearGradient id="paint1_linear" x1="15.8048" y1="14.4402" x2="15.8048" y2="23.9746" gradientUnits="userSpaceOnUse">
<stop stop-color="#1762A7"/>
<stop offset="1" stop-color="#BC3A80"/>
</linearGradient>
<linearGradient id="paint2_linear" x1="25.9611" y1="0" x2="25.9611" y2="60.0001" gradientUnits="userSpaceOnUse">
<stop stop-color="#1762A7"/>
<stop offset="1" stop-color="#BC3A80"/>
</linearGradient>
</defs>
</svg>
