<svg width="45" height="45" viewBox="0 0 45 45" fill="none" xmlns="http://www.w3.org/2000/svg">
<path d="M22.5 0C10.0932 0 0 10.0932 0 22.5C0 34.9059 10.0932 45 22.5 45C34.9068 45 45 34.9059 45 22.5C45 10.0932 34.9068 0 22.5 0ZM22.5 41.25C12.1614 41.25 3.75 32.8386 3.75 22.5C3.75 12.1614 12.1614 3.75 22.5 3.75C32.8386 3.75 41.25 12.1614 41.25 22.5C41.25 32.8386 32.8386 41.25 22.5 41.25Z" fill="url(#paint0_linear)"/>
<path d="M24.7137 11.0664C24.4675 10.9593 24.2171 10.8742 23.9648 10.8V7.5H20.2148V10.8124C18.4291 11.3521 16.8819 12.6411 16.0854 14.4836C15.3886 16.0922 15.3616 17.8761 16.0066 19.5058C16.6516 21.1359 17.8926 22.4167 19.5428 23.1299L23.1894 24.6066C23.8788 24.9037 24.4112 25.453 24.6877 26.1516C24.9641 26.8501 24.9522 27.6151 24.6538 28.304C24.3558 28.9929 23.8065 29.5258 23.1079 29.8022C22.4084 30.0787 21.3139 30.3575 20.625 30.0586C19.6069 29.6182 19.5117 29.1797 19.2773 28.8281L18.9258 28.304L16.1133 30.4688C18.2227 32.4609 17.5195 31.9922 19.4669 33.2108C19.7122 33.317 19.9626 33.403 20.2158 33.4781V37.5H23.9658V33.4671C24.1411 33.4135 24.3164 33.3554 24.489 33.2867C26.1182 32.6418 27.399 31.3998 28.0952 29.7908C28.792 28.1822 28.8194 26.3992 28.1744 24.7696C27.529 23.1404 26.288 21.8596 24.6378 21.1455L20.9912 19.6696C20.3018 19.3716 19.7694 18.8223 19.493 18.1238C19.2165 17.4252 19.2288 16.6603 19.5268 15.9714C19.8248 15.282 20.3741 14.7496 21.0727 14.4731C21.7703 14.1975 22.5352 14.2085 23.2251 14.507C24.2281 14.9419 24.6094 15.8789 24.9023 16.875L25.0195 17.2852L28.1836 14.9414C27.1875 12.9492 27.1065 12.1014 24.7137 11.0664Z" fill="url(#paint1_linear)"/>
<path d="M12.6754 31.9693L10.5469 29.1797L32.4609 14.1797L34.3803 16.7714L12.6754 31.9693Z" fill="url(#paint2_linear)"/>
<defs>
<linearGradient id="paint0_linear" x1="11.5524" y1="30.6157" x2="33.3748" y2="15.3354" gradientUnits="userSpaceOnUse">
<stop stop-color="#1762A7"/>
<stop offset="1" stop-color="#BC3A80"/>
</linearGradient>
<linearGradient id="paint1_linear" x1="11.5524" y1="30.6157" x2="33.3748" y2="15.3354" gradientUnits="userSpaceOnUse">
<stop stop-color="#1762A7"/>
<stop offset="1" stop-color="#BC3A80"/>
</linearGradient>
<linearGradient id="paint2_linear" x1="11.5524" y1="30.6157" x2="33.3748" y2="15.3354" gradientUnits="userSpaceOnUse">
<stop stop-color="#1762A7"/>
<stop offset="1" stop-color="#BC3A80"/>
</linearGradient>
</defs>
</svg>
