<svg width="218" height="60" viewBox="0 0 218 60" fill="none" xmlns="http://www.w3.org/2000/svg">
<g clip-path="url(#clip0)">
<path d="M205.5 11.25V53.75C205.5 57.195 202.695 60 199.25 60H174.25C170.805 60 168 57.195 168 53.75V11.25C168 7.805 170.805 5 174.25 5H175.5V3.7725C175.5 1.705 177.182 0.0225029 179.25 0.0225029H194.25C196.317 0.0225029 198 1.705 198 3.7725V5H199.25C202.695 5 205.5 7.805 205.5 11.25ZM170.5 53.75C170.5 55.8175 172.182 57.5 174.25 57.5H199.25C201.318 57.5 203 55.8175 203 53.75V11.25C203 9.1825 201.318 7.5 199.25 7.5H196.75C196.06 7.5 195.5 6.94 195.5 6.25V3.7725C195.5 3.0825 194.94 2.5225 194.25 2.5225H179.25C178.56 2.5225 178 3.0825 178 3.7725V6.25C178 6.94 177.44 7.5 176.75 7.5H174.25C172.182 7.5 170.5 9.1825 170.5 11.25V53.75Z" fill="url(#paint0_linear)"/>
<path d="M199.25 35C199.25 35.1425 199.225 35.285 199.177 35.4225C198.977 35.9725 198.425 36.3125 197.845 36.24L189.25 35.165L189.245 38.76C189.245 39.23 188.982 39.6575 188.567 39.87C188.15 40.0825 187.65 40.0475 187.267 39.775L174.77 30.835C174.3 30.495 174.125 29.875 174.342 29.34C174.565 28.8025 175.127 28.49 175.7 28.5825L183 29.78L183.005 26.26C183.005 25.8025 183.255 25.385 183.655 25.165C184.055 24.9475 184.54 24.9625 184.925 25.2075L198.672 33.9475C199.04 34.18 199.25 34.5825 199.25 35ZM186.75 36.3325L186.752 33.7475C186.752 33.39 186.907 33.05 187.175 32.8125C187.442 32.575 187.8 32.465 188.157 32.51L192.632 33.07L185.5 28.535L185.497 31.2525C185.497 31.6175 185.335 31.9675 185.057 32.2025C184.777 32.44 184.407 32.5425 184.047 32.4825L180.582 31.915L186.75 36.3325Z" fill="url(#paint1_linear)"/>
</g>
<path fill-rule="evenodd" clip-rule="evenodd" d="M3.6 0C1.61177 0 0 2.01471 0 4.5V55.5C0 57.9854 1.61177 60 3.6 60H32.4C34.3883 60 36 57.9854 36 55.5V4.5C36 2.01471 34.3883 0 32.4 0H3.6ZM33.6 3H2.4V57H33.6V3Z" fill="url(#paint2_linear)"/>
<path d="M9.60013 3.75003C9.60013 2.50739 10.406 1.50003 11.4001 1.50003H24.6001C25.5942 1.50003 26.4001 2.50739 26.4001 3.75003C26.4001 4.99268 25.5942 6.00003 24.6001 6.00003H11.4001C10.406 6.00003 9.60013 4.99268 9.60013 3.75003Z" fill="url(#paint3_linear)"/>
<path d="M25.8001 52.5H10.2001C9.86876 52.5 9.60013 52.8358 9.60013 53.25C9.60013 53.6642 9.86876 54 10.2001 54H25.8001C26.1315 54 26.4001 53.6642 26.4001 53.25C26.4001 52.8358 26.1315 52.5 25.8001 52.5Z" fill="url(#paint4_linear)"/>
<path d="M7.04306 24.4236L11.2689 9L12 14.5L12.6775 20.3852L17 20L8.45167 35.1928L11.2689 24.4236H7.04306Z" fill="url(#paint5_linear)"/>
<path d="M19.7206 42.821L26.2941 23.0775L24 37L29 35L20.6596 50.0005L24 40L19.7206 42.821Z" fill="url(#paint6_linear)"/>
<path d="M130.454 9.02801C131.308 9.02801 132 8.33566 132 7.4816V4.76918C132 2.13949 129.861 0 127.231 0H76.7692C74.1395 0 72 2.13949 72 4.76918V7.4816C72 8.33566 72.6923 9.02801 73.5464 9.02801C74.5825 9.02801 75.4253 9.87082 75.4253 10.9069C75.4253 11.9437 74.5825 12.7874 73.5464 12.7874C72.6923 12.7875 72 13.4797 72 14.3339V55.2308C72 57.8605 74.1395 60 76.7692 60H127.231C129.861 60 132 57.8605 132 55.2308V14.3339C132 13.4798 131.308 12.7875 130.454 12.7875C129.418 12.7875 128.575 11.9439 128.575 10.907C128.575 9.87105 129.418 9.02801 130.454 9.02801ZM128.907 6.18141C126.921 6.83309 125.482 8.70516 125.482 10.907C125.482 13.1094 126.92 14.9822 128.907 15.6341V55.2308C128.907 56.1553 128.155 56.9072 127.231 56.9072H76.7692C75.8447 56.9072 75.0928 56.1552 75.0928 55.2308V15.6341C77.0795 14.9823 78.5182 13.1095 78.5182 10.907C78.5182 8.70516 77.0796 6.83309 75.0928 6.18141V4.76918C75.0928 3.84492 75.8448 3.09281 76.7692 3.09281H127.231C128.155 3.09281 128.907 3.8448 128.907 4.76918V6.18141Z" fill="url(#paint7_linear)"/>
<path d="M117.232 9.83532H116.846V8.15743C116.846 7.30337 116.154 6.61102 115.3 6.61102C114.446 6.61102 113.754 7.30337 113.754 8.15743V9.83532H111.527V8.15743C111.527 7.30337 110.834 6.61102 109.98 6.61102C109.126 6.61102 108.434 7.30337 108.434 8.15743V9.83532H106.207V8.15743C106.207 7.30337 105.515 6.61102 104.661 6.61102C103.807 6.61102 103.114 7.30337 103.114 8.15743V9.83532H100.887V8.15743C100.887 7.30337 100.195 6.61102 99.3409 6.61102C98.4869 6.61102 97.7945 7.30337 97.7945 8.15743V9.83532H95.5676V8.15743C95.5676 7.30337 94.8752 6.61102 94.0212 6.61102C93.1671 6.61102 92.4748 7.30337 92.4748 8.15743V9.83532H90.2479V8.15743C90.2479 7.30337 89.5555 6.61102 88.7015 6.61102C87.8474 6.61102 87.1551 7.30337 87.1551 8.15743V9.83532H86.7685C84.0483 9.83532 81.8353 12.0483 81.8353 14.7684V45.2316C81.8353 47.9525 84.0483 50.1662 86.7685 50.1662H87.1551V51.8426C87.1551 52.6966 87.8474 53.389 88.7015 53.389C89.5555 53.389 90.2479 52.6966 90.2479 51.8426V50.1662H92.4748V51.8426C92.4748 52.6966 93.1671 53.389 94.0212 53.389C94.8752 53.389 95.5676 52.6966 95.5676 51.8426V50.1662H97.7945V51.8426C97.7945 52.6966 98.4869 53.389 99.3409 53.389C100.195 53.389 100.887 52.6966 100.887 51.8426V50.1662H103.114V51.8426C103.114 52.6966 103.807 53.389 104.661 53.389C105.515 53.389 106.207 52.6966 106.207 51.8426V50.1662H108.434V51.8426C108.434 52.6966 109.126 53.389 109.98 53.389C110.834 53.389 111.527 52.6966 111.527 51.8426V50.1662H113.754V51.8426C113.754 52.6966 114.446 53.389 115.3 53.389C116.154 53.389 116.846 52.6966 116.846 51.8426V50.1662H117.232C119.953 50.1662 122.166 47.9527 122.166 45.2316V14.7684C122.166 12.0483 119.953 9.83532 117.232 9.83532ZM119.073 45.2316C119.073 46.2471 118.247 47.0734 117.232 47.0734H86.7685C85.7537 47.0734 84.9283 46.2471 84.9283 45.2316V14.7684C84.9283 13.7537 85.7537 12.9282 86.7685 12.9282H117.232C118.247 12.9282 119.073 13.7537 119.073 14.7684V45.2316Z" fill="url(#paint8_linear)"/>
<path d="M95.0125 31.0708C94.1584 31.0708 93.4661 31.7632 93.4661 32.6173C93.4661 33.2244 92.9721 33.7184 92.365 33.7184C91.7569 33.7184 91.2624 33.2244 91.2624 32.6173V27.3841C91.2624 26.777 91.7569 26.283 92.365 26.283C92.9721 26.283 93.4661 26.777 93.4661 27.3841C93.4661 28.2382 94.1584 28.9305 95.0125 28.9305C95.8665 28.9305 96.5589 28.2382 96.5589 27.3841C96.5589 25.0715 94.6774 23.1902 92.365 23.1902C90.0517 23.1902 88.1696 25.0717 88.1696 27.3841V32.6173C88.1696 34.9298 90.0516 36.8112 92.365 36.8112C94.6776 36.8112 96.5589 34.9297 96.5589 32.6173C96.5589 31.7632 95.8665 31.0708 95.0125 31.0708Z" fill="url(#paint9_linear)"/>
<path d="M114.286 23.1904C113.432 23.1904 112.739 23.8827 112.739 24.7368V32.6174C112.739 33.2245 112.245 33.7185 111.637 33.7185C111.029 33.7185 110.535 33.2245 110.535 32.6174V24.7368C110.535 23.8827 109.843 23.1904 108.989 23.1904C108.135 23.1904 107.443 23.8827 107.443 24.7368V32.6174C107.443 34.93 109.324 36.8113 111.637 36.8113C113.95 36.8113 115.832 34.9298 115.832 32.6174V24.7368C115.832 23.8826 115.14 23.1904 114.286 23.1904Z" fill="url(#paint10_linear)"/>
<path d="M102.001 23.1904H99.3518C98.4977 23.1904 97.8054 23.8827 97.8054 24.7368V30.0333V35.2649C97.8054 36.1189 98.4977 36.8113 99.3518 36.8113C100.206 36.8113 100.898 36.1189 100.898 35.2649V31.5797H102.001C104.314 31.5797 106.196 29.6977 106.196 27.3843C106.196 25.0717 104.314 23.1904 102.001 23.1904ZM102.001 28.4869H100.898V26.2832H102.001C102.609 26.2832 103.103 26.7771 103.103 27.3843C103.103 27.9922 102.609 28.4869 102.001 28.4869Z" fill="url(#paint11_linear)"/>
<path d="M89.7159 15.0453H88.7014C87.8474 15.0453 87.155 15.7376 87.155 16.5917C87.155 17.4457 87.8474 18.1381 88.7014 18.1381H89.7159C90.57 18.1381 91.2623 17.4457 91.2623 16.5917C91.2623 15.7376 90.57 15.0453 89.7159 15.0453Z" fill="url(#paint12_linear)"/>
<path d="M99.3409 15.0453H94.0212C93.1671 15.0453 92.4748 15.7376 92.4748 16.5917C92.4748 17.4457 93.1671 18.1381 94.0212 18.1381H99.3409C100.195 18.1381 100.887 17.4457 100.887 16.5917C100.887 15.7376 100.195 15.0453 99.3409 15.0453Z" fill="url(#paint13_linear)"/>
<defs>
<linearGradient id="paint0_linear" x1="168" y1="30.0113" x2="205.5" y2="30.0113" gradientUnits="userSpaceOnUse">
<stop stop-color="#1762A7"/>
<stop offset="1" stop-color="#BC3A80"/>
</linearGradient>
<linearGradient id="paint1_linear" x1="174.25" y1="32.5099" x2="199.25" y2="32.5099" gradientUnits="userSpaceOnUse">
<stop stop-color="#1762A7"/>
<stop offset="1" stop-color="#BC3A80"/>
</linearGradient>
<linearGradient id="paint2_linear" x1="18" y1="0" x2="18" y2="60" gradientUnits="userSpaceOnUse">
<stop stop-color="#1762A7"/>
<stop offset="1" stop-color="#BC3A80"/>
</linearGradient>
<linearGradient id="paint3_linear" x1="18.0001" y1="1.50003" x2="18.0001" y2="6.00003" gradientUnits="userSpaceOnUse">
<stop stop-color="#1762A7"/>
<stop offset="1" stop-color="#BC3A80"/>
</linearGradient>
<linearGradient id="paint4_linear" x1="18.0001" y1="52.5" x2="18.0001" y2="54" gradientUnits="userSpaceOnUse">
<stop stop-color="#1762A7"/>
<stop offset="1" stop-color="#BC3A80"/>
</linearGradient>
<linearGradient id="paint5_linear" x1="11.2689" y1="12.3083" x2="11.2689" y2="35.1928" gradientUnits="userSpaceOnUse">
<stop stop-color="#1762A7"/>
<stop offset="1" stop-color="#BC3A80"/>
</linearGradient>
<linearGradient id="paint6_linear" x1="25.355" y1="23.0775" x2="25.355" y2="50.0005" gradientUnits="userSpaceOnUse">
<stop stop-color="#1762A7"/>
<stop offset="1" stop-color="#BC3A80"/>
</linearGradient>
<linearGradient id="paint7_linear" x1="102" y1="0" x2="102" y2="60" gradientUnits="userSpaceOnUse">
<stop stop-color="#1762A7"/>
<stop offset="1" stop-color="#BC3A80"/>
</linearGradient>
<linearGradient id="paint8_linear" x1="102.001" y1="6.61102" x2="102.001" y2="53.389" gradientUnits="userSpaceOnUse">
<stop stop-color="#1762A7"/>
<stop offset="1" stop-color="#BC3A80"/>
</linearGradient>
<linearGradient id="paint9_linear" x1="92.3642" y1="23.1902" x2="92.3642" y2="36.8112" gradientUnits="userSpaceOnUse">
<stop stop-color="#1762A7"/>
<stop offset="1" stop-color="#BC3A80"/>
</linearGradient>
<linearGradient id="paint10_linear" x1="111.637" y1="23.1904" x2="111.637" y2="36.8113" gradientUnits="userSpaceOnUse">
<stop stop-color="#1762A7"/>
<stop offset="1" stop-color="#BC3A80"/>
</linearGradient>
<linearGradient id="paint11_linear" x1="102.001" y1="23.1904" x2="102.001" y2="36.8113" gradientUnits="userSpaceOnUse">
<stop stop-color="#1762A7"/>
<stop offset="1" stop-color="#BC3A80"/>
</linearGradient>
<linearGradient id="paint12_linear" x1="89.2087" y1="15.0453" x2="89.2087" y2="18.1381" gradientUnits="userSpaceOnUse">
<stop stop-color="#1762A7"/>
<stop offset="1" stop-color="#BC3A80"/>
</linearGradient>
<linearGradient id="paint13_linear" x1="96.681" y1="15.0453" x2="96.681" y2="18.1381" gradientUnits="userSpaceOnUse">
<stop stop-color="#1762A7"/>
<stop offset="1" stop-color="#BC3A80"/>
</linearGradient>
<clipPath id="clip0">
<rect width="60" height="60" fill="white" transform="translate(158 60) rotate(-90)"/>
</clipPath>
</defs>
</svg>
