<svg width="45" height="60" viewBox="0 0 45 60" fill="none" xmlns="http://www.w3.org/2000/svg">
<path fill-rule="evenodd" clip-rule="evenodd" d="M3 0C1.34315 0 0 1.34315 0 3V57C0 58.6569 1.34315 60 3 60H42C43.6569 60 45 58.6569 45 57V3C45 1.34315 43.6569 0 42 0H3ZM41.9999 3H2.99994V57H41.9999V3Z" fill="url(#paint0_linear)"/>
<path d="M12 2.25C12 1.00736 13.0074 0 14.25 0H30.75C31.9926 0 33 1.00736 33 2.25V2.25C33 3.49264 31.9926 4.5 30.75 4.5H14.25C13.0074 4.5 12 3.49264 12 2.25V2.25Z" fill="url(#paint1_linear)"/>
<rect x="12" y="52.5" width="21" height="1.5" rx="0.75" fill="url(#paint2_linear)"/>
<path d="M17.2792 24.6578L17.6889 23.6897C17.7909 23.4464 17.9829 23.261 18.2219 23.1748L18.9976 22.8925C19.0771 22.8637 19.141 22.802 19.1754 22.7212L19.3265 22.3636C19.3979 22.1952 19.3237 21.991 19.1608 21.9077L18.8655 21.7569C18.7026 21.6736 18.6283 21.4696 18.6996 21.3011L19.9874 18.2612C19.996 18.2412 20.0064 18.2223 20.0185 18.2047C20.6704 17.2487 21.5694 16.5155 22.6154 16.0867L26.7418 14.3961C26.9049 14.3291 27.0946 14.4172 27.1656 14.5928C27.2181 14.7228 27.1919 14.8699 27.0994 14.9642L23.8315 18.3043C23.5271 18.6463 23.2719 19.0341 23.0732 19.4563L24.5448 20.2081C24.7077 20.2913 24.782 20.4953 24.7107 20.6638L38.5786 27.7461C39.387 28.1769 39.7418 29.2031 39.3711 30.0383C39.0095 30.853 38.0882 31.1883 37.2875 30.7967L23.4204 23.713C23.3491 23.8814 23.1593 23.9505 22.9963 23.8673L22.1111 23.4154C21.9481 23.3367 21.7612 23.4047 21.687 23.5697L21.5358 23.927C21.5012 24.0078 21.4995 24.1014 21.5308 24.1869L21.8342 25.0204C21.9283 25.2767 21.923 25.5575 21.8194 25.7999L21.4101 26.7677C21.3388 26.9362 21.149 27.0054 20.986 26.9223L17.4453 25.1136C17.2823 25.0304 17.2079 24.8264 17.2792 24.6578ZM37.5454 30.1866C38.0342 30.4364 38.604 30.229 38.818 29.7235C39.032 29.2179 38.8091 28.6056 38.3202 28.3559L24.4535 21.2721L23.6787 23.1029L37.5454 30.1866ZM20.9492 26.1612L21.2291 25.4987C21.2631 25.4177 21.2648 25.3243 21.234 25.2388L20.9307 24.4053C20.8367 24.149 20.842 23.8682 20.9455 23.6257L21.0966 23.2681C21.3105 22.7628 21.8801 22.5555 22.3689 22.805L22.9592 23.1063L23.9922 20.6654L22.5169 19.9117C22.354 19.8285 22.2797 19.6245 22.351 19.456L22.4027 19.3339C22.6413 18.7727 22.9659 18.2601 23.364 17.8159L25.4751 15.6565L22.8721 16.7229C21.9448 17.1026 21.1463 17.7497 20.5639 18.5934L19.4194 21.2975C19.9076 21.5479 20.1302 22.1595 19.9172 22.6651L19.7658 23.0228C19.6636 23.2659 19.4716 23.4512 19.2326 23.5374L18.457 23.8197C18.3776 23.8489 18.3138 23.9105 18.2793 23.9913L17.9988 24.654L20.9492 26.1612Z" fill="url(#paint3_linear)"/>
<path d="M17 29.8269C16.9783 29.8094 16.9546 29.7886 16.929 29.7649M16.929 29.7649C16.4825 29.3513 15.4729 28.0404 15 27.4038V30.2308L13.5 29.8269L14 31.4423L10.5 33.0577L16 32.6538V34.2692L17.5 32.6538L18.5 37.5L19 32.25H22.5L20.5 31.0385L24 27L19.5 29.4231L18.5 27.8077L16.929 29.7649Z" stroke="url(#paint4_linear)" stroke-width="0.3"/>
<defs>
<linearGradient id="paint0_linear" x1="22.5" y1="0" x2="22.5" y2="60" gradientUnits="userSpaceOnUse">
<stop stop-color="#1762A7"/>
<stop offset="1" stop-color="#BC3A80"/>
</linearGradient>
<linearGradient id="paint1_linear" x1="22.5" y1="0" x2="22.5" y2="4.5" gradientUnits="userSpaceOnUse">
<stop stop-color="#1762A7"/>
<stop offset="1" stop-color="#BC3A80"/>
</linearGradient>
<linearGradient id="paint2_linear" x1="22.5" y1="52.5" x2="22.5" y2="54" gradientUnits="userSpaceOnUse">
<stop stop-color="#1762A7"/>
<stop offset="1" stop-color="#BC3A80"/>
</linearGradient>
<linearGradient id="paint3_linear" x1="24.1622" y1="15.3347" x2="30.8316" y2="33.6587" gradientUnits="userSpaceOnUse">
<stop stop-color="#1762A7"/>
<stop offset="0.963542" stop-color="#BC3A80"/>
</linearGradient>
<linearGradient id="paint4_linear" x1="17.25" y1="27" x2="17.25" y2="37.5" gradientUnits="userSpaceOnUse">
<stop stop-color="#1762A7"/>
<stop offset="1" stop-color="#BC3A80"/>
</linearGradient>
</defs>
</svg>
