<svg width="39" height="45" viewBox="0 0 39 45" fill="none" xmlns="http://www.w3.org/2000/svg">
<path d="M15.7378 10.6969C15.7378 10.7978 15.7791 10.8401 15.8632 10.8223C15.93 10.8223 16.0016 10.744 16.0765 10.584C16.1519 10.4259 16.2811 10.338 16.4656 10.3202C16.3815 10.3202 16.2979 10.3202 16.2143 10.3202C15.8968 10.3716 15.7378 10.4971 15.7378 10.6969Z" fill="url(#paint0_linear)"/>
<path d="M17.9225 10.3963C18.0896 10.3463 18.2362 10.3833 18.3621 10.5092C18.488 10.6351 18.5836 10.6898 18.6508 10.673C18.7512 10.6231 18.7762 10.5477 18.7263 10.4462C18.5917 10.2296 18.3241 10.2128 17.9225 10.3963Z" fill="url(#paint1_linear)"/>
<path d="M37.1318 37.0633C37.0819 37.0311 36.9435 36.9504 36.7177 36.825C36.4919 36.6996 36.3117 36.5915 36.1777 36.4983C36.0437 36.407 35.8678 36.247 35.6501 36.0217C35.4326 35.7959 35.261 35.5567 35.1356 35.3059C35.0102 35.0546 34.8882 34.7164 34.7714 34.2898C34.6542 33.8622 34.5869 33.3904 34.5705 32.8706C34.3361 33.0719 34.2063 33.4697 34.1814 34.0635C34.1564 34.6587 34.2817 35.2651 34.5581 35.8839C34.8343 36.5036 35.2484 36.9057 35.8009 37.0892C36.3366 37.2738 36.7675 37.4706 37.0943 37.6796C37.421 37.8886 37.63 38.1269 37.7222 38.3946C37.814 38.6621 37.6593 38.9508 37.2576 39.2608C36.856 39.5706 36.2113 39.8767 35.3243 40.1779C34.1021 40.5959 33.2358 40.9519 32.7252 41.245C32.2145 41.5371 31.4655 42.0935 30.4777 42.9145C29.808 43.4666 29.0964 43.7639 28.3431 43.8063C27.5898 43.8476 26.9786 43.5718 26.5102 42.9774C26.0413 42.3832 25.8909 41.5414 26.0581 40.4537C26.3757 38.3624 26.3675 36.7303 26.0331 35.5571C25.7651 34.637 25.7065 33.8246 25.8573 33.1217C26.0082 32.4184 26.2421 32.0096 26.5602 31.8918C26.8778 31.7751 27.2213 32.0264 27.5898 32.6452C27.6235 32.7287 27.6984 32.8922 27.8156 33.1348C27.9323 33.3779 28.0289 33.5489 28.1044 33.6498C28.1798 33.7497 28.2926 33.8805 28.4435 34.039C28.5944 34.1979 28.7827 34.3109 29.0085 34.3772C29.2343 34.4449 29.498 34.4863 29.7993 34.5027C30.3681 34.5204 30.8788 34.4027 31.3309 34.1514C31.783 33.9002 32.1217 33.6196 32.348 33.3097C32.5738 33.0007 32.8001 32.7033 33.026 32.418C33.2518 32.1345 33.4487 31.9746 33.6159 31.9414C33.8 31.9082 33.9676 31.7238 34.118 31.3894C34.2685 31.055 34.3689 30.5899 34.4193 29.9956C34.4693 29.4014 34.4275 28.6951 34.2939 27.874C34.0426 26.4173 33.5444 24.8184 32.7997 23.0773C32.0546 21.3371 31.2215 19.9726 30.3015 18.9839C28.6445 17.226 27.5308 15.4017 26.9619 13.5107C26.3757 11.5184 26.1245 9.72725 26.2086 8.13654C26.2921 6.99887 26.0452 5.76362 25.4677 4.43283C24.8901 3.10204 24.1244 2.08527 23.1702 1.38243C22.5677 0.930326 21.8225 0.582949 20.9351 0.339902C20.0477 0.0977979 19.1604 -0.0151684 18.2735 0.00163136C17.1853 0.00163136 16.3147 0.177008 15.6618 0.528232C14.3224 1.24936 13.4355 2.12326 13.0002 3.15291C12.5649 4.18201 12.364 5.44992 12.3977 6.95656C12.4645 10.2711 12.5985 12.8664 12.7994 14.7406C12.5644 15.6117 11.5267 17.2437 9.68559 19.6373C9.3507 19.9726 9.02404 20.4238 8.70642 20.9931C8.38832 21.5629 8.13711 22.0732 7.9531 22.5253C7.76862 22.9774 7.52211 23.6298 7.21226 24.484C6.90233 25.3373 6.6804 25.9407 6.54687 26.2919C6.42958 26.5931 6.24565 26.9452 5.99436 27.3465C5.74307 27.7486 5.54226 28.1421 5.39185 28.5264C5.24104 28.9117 5.15689 29.3475 5.14056 29.8327C5.12376 30.2017 5.14056 30.5193 5.19056 30.786C5.25737 31.1881 5.38274 31.3136 5.56722 31.1627C6.32054 30.5938 7.26612 30.9291 8.40473 32.1673C9.20798 33.0383 10.6225 35.0638 12.6485 38.2448C12.8157 38.5293 12.9834 38.8344 13.1506 39.1611C13.3178 39.4878 13.4773 39.9221 13.6276 40.4664C13.7781 41.0108 13.8409 41.5004 13.816 41.9356C13.791 42.37 13.5984 42.7725 13.2385 43.141C12.8782 43.509 12.3381 43.7435 11.6189 43.8434C11.2336 43.8943 10.769 43.8603 10.2251 43.7435C9.6808 43.6258 8.99036 43.4337 8.15344 43.1656C7.31604 42.898 6.69728 42.7134 6.29511 42.6136C5.709 42.479 4.87639 42.3075 3.79681 42.0985C2.71676 41.8895 2.00961 41.7348 1.67471 41.6344C1.1054 41.4835 0.795943 41.2654 0.745544 40.981C0.695066 40.7466 0.812351 40.3444 1.09724 39.7756C1.38166 39.2058 1.52391 38.7965 1.52391 38.5457C1.54023 38.3621 1.53207 38.1777 1.49894 37.9937C1.46534 37.8092 1.42735 37.667 1.38605 37.5661C1.34421 37.4663 1.27317 37.3149 1.17276 37.115C1.07235 36.9137 1.00508 36.7629 0.971948 36.6628C0.67073 35.9595 0.628417 35.4829 0.846499 35.2317C0.997383 35.014 1.35677 34.9294 1.92655 34.9804C2.78027 35.064 3.47456 34.9381 4.01074 34.6038C4.89759 34.0507 5.16568 33.1639 4.81398 31.9417C4.81398 32.5114 4.71358 32.938 4.51277 33.2224C4.31188 33.5069 3.96026 33.799 3.45815 34.1011C3.17326 34.2689 2.67123 34.3687 1.95151 34.4024C1.23132 34.4356 0.754729 34.5523 0.520318 34.7536C0.352635 34.9045 0.265182 35.1303 0.256546 35.4315C0.247911 35.7338 0.285907 36.0398 0.369434 36.3488C0.45304 36.6586 0.536647 37.0137 0.620724 37.4159C0.704251 37.8169 0.737458 38.1524 0.72113 38.4205C0.70433 38.604 0.553446 39.0608 0.269028 39.7888C-0.0158604 40.5166 -0.0745026 41.0739 0.0931807 41.4583C0.176787 41.6429 0.318957 41.8057 0.519847 41.9489C0.720737 42.0901 1.00076 42.2117 1.36109 42.3126C1.72095 42.4124 2.05145 42.4923 2.35274 42.5508C2.65396 42.6085 3.07238 42.6844 3.60809 42.7767C4.1438 42.8689 4.57047 42.9482 4.88895 43.0159C5.9599 43.2326 7.18212 43.593 8.55522 44.095C9.92738 44.5971 10.857 44.856 11.3427 44.8737C11.8111 44.8906 12.2589 44.7936 12.6861 44.5855C13.1131 44.3756 13.4768 44.1372 13.7781 43.8697C14.0793 43.6011 14.5271 43.3498 15.1215 43.1163C15.7153 42.8819 16.3811 42.7564 17.1177 42.7396C17.4526 42.7218 17.9378 42.7021 18.5739 42.6767C19.21 42.6512 19.6871 42.6391 20.0052 42.6391C21.4445 42.6391 22.5328 42.6469 23.2697 42.6636C23.7718 42.6804 24.1652 42.7597 24.4496 42.9019C24.7341 43.0441 24.9182 43.2079 25.0022 43.3925C25.0858 43.576 25.2236 43.7888 25.4168 44.032C25.6089 44.2751 25.8564 44.4716 26.1576 44.6224C26.7938 44.9236 27.5389 45.0442 28.3927 44.9861C29.2464 44.9274 29.8153 44.7646 30.1002 44.4965C30.5686 44.0444 31.2009 43.5087 31.9959 42.89C32.7906 42.2701 33.5064 41.8013 34.1431 41.4832C34.2766 41.4155 34.503 41.3079 34.821 41.1565C35.1386 41.0066 35.4067 40.876 35.6243 40.7668C35.8419 40.6578 36.1052 40.5199 36.4151 40.3527C36.7244 40.1851 36.9758 40.0299 37.1685 39.8877C37.3606 39.7454 37.5576 39.5817 37.7584 39.3981C37.9593 39.2136 38.089 39.0292 38.1476 38.8461C38.2062 38.6616 38.2269 38.4743 38.21 38.2811C38.1932 38.089 38.0928 37.8877 37.9088 37.6787C37.7261 37.4706 37.4667 37.2646 37.1318 37.0633ZM24.4511 13.4098C24.5015 13.3776 24.5347 13.3646 24.5515 13.3723C24.5678 13.381 24.6015 13.4146 24.6519 13.4723C24.7024 13.5309 24.748 13.5851 24.7903 13.6361C24.8316 13.686 24.8907 13.7538 24.9661 13.836C25.0415 13.9205 25.1208 13.9868 25.2049 14.0372C25.3053 14.105 25.4263 14.1501 25.569 14.1756C25.7113 14.2011 25.8203 14.2434 25.8953 14.301C25.9707 14.3597 26.025 14.4562 26.0586 14.5893C26.0918 14.7738 26.0625 14.9414 25.9707 15.0913C25.8784 15.2422 25.7574 15.3099 25.6065 15.2926C25.3053 15.2258 24.9785 14.9621 24.6273 14.5017C24.2762 14.0416 24.2166 13.6783 24.4511 13.4098ZM21.3374 3.65494C21.4209 3.5459 21.4709 3.45892 21.4877 3.39117C21.5209 3.29029 21.5252 3.18604 21.5002 3.07739C21.4752 2.96882 21.4834 2.85978 21.5252 2.75066C21.5669 2.64256 21.6636 2.58015 21.814 2.56233C21.9648 2.56233 22.1656 2.6877 22.4164 2.93899C22.4664 2.97212 22.5461 3.02354 22.6552 3.08987C22.7638 3.15668 22.8392 3.21524 22.881 3.26525C22.9228 3.31518 22.944 3.35749 22.944 3.39062C22.9104 3.47423 22.8349 3.53287 22.7182 3.566C22.601 3.59913 22.4751 3.61593 22.3415 3.61593C22.2074 3.61593 22.132 3.62456 22.1157 3.64144C21.9817 3.69137 21.8557 3.76681 21.739 3.86721C21.6218 3.96809 21.5296 4.04251 21.4627 4.09401C21.3955 4.14394 21.3287 4.14394 21.2619 4.09401C21.1947 3.99313 21.1696 3.92248 21.1864 3.88017C21.2033 3.83887 21.2537 3.76343 21.3374 3.65494ZM9.18411 22.4493C9.30085 22.3157 9.38492 22.2072 9.43485 22.1225C9.48486 22.0404 9.53094 21.9265 9.57325 21.7843C9.61455 21.642 9.65254 21.5383 9.68614 21.4706C9.71982 21.4038 9.76975 21.3783 9.83702 21.3951C9.87015 21.4129 9.89567 21.4283 9.91247 21.4451C9.92879 21.4629 9.93743 21.4835 9.93743 21.508C9.93743 21.5335 9.93743 21.558 9.93743 21.5835C9.93743 21.6089 9.93311 21.6421 9.92495 21.6834C9.91631 21.7266 9.90375 21.7636 9.88742 21.7973C9.87062 21.8304 9.85382 21.8808 9.83749 21.9472C9.8207 22.0149 9.80382 22.0726 9.78749 22.1225C9.72021 22.2912 9.61549 22.4416 9.47371 22.5746C9.33107 22.7091 9.22635 22.7678 9.16001 22.7499C9.05827 22.7183 9.06691 22.617 9.18411 22.4493ZM25.4432 36.0971C25.5854 36.9758 25.6397 37.5908 25.6065 37.942C25.5729 38.4786 25.46 39.231 25.2673 40.2019C25.0747 41.1729 24.9536 41.8177 24.9032 42.1363C24.5515 42.1184 24.3507 41.9892 24.3006 41.7466C24.2506 41.5034 24.3006 41.1893 24.451 40.8049C24.819 39.6826 25.0117 38.9129 25.0285 38.495C25.0621 37.7248 24.9784 37.2896 24.7777 37.1887C24.5932 37.0551 24.3087 37.3063 23.924 37.942C23.1869 39.1474 21.7057 39.8763 19.4794 40.1275C17.4707 40.3941 16.0808 40.0934 15.3111 39.2233C15.1435 39.1056 14.9758 39.0849 14.809 39.1604C14.6414 39.2358 14.5328 39.3156 14.4828 39.3986C14.466 39.4318 14.4828 39.4822 14.5328 39.5495C14.5827 39.6163 14.6625 39.7162 14.7711 39.8507C14.8797 39.9843 14.9676 40.1183 15.0349 40.2529C15.6878 41.3906 15.6292 42.1608 14.859 42.5628C14.859 41.7918 14.8 41.2022 14.6832 40.7924C14.566 40.3826 14.3315 39.93 13.9799 39.4366C13.6282 38.9423 13.3855 38.5695 13.2515 38.3186C13.7536 38.2687 14.1346 38.0765 14.3941 37.7421C14.6535 37.4077 14.7707 37.0478 14.7457 36.6621C14.7207 36.2777 14.5737 35.9587 14.3061 35.7075C14.1557 35.5566 13.3769 34.9167 11.9706 33.7871C10.5644 32.6571 9.69383 31.9 9.35894 31.5147C9.29166 31.4479 9.09085 31.2803 8.75642 31.0126C8.42153 30.745 8.21208 30.5105 8.12848 30.3092C7.35828 28.619 7.27475 27.2291 7.87766 26.1403L7.97806 26.015C8.06167 25.9991 8.06983 26.1495 8.00303 26.4671C7.90262 26.9369 7.86894 27.4049 7.90262 27.8738C7.96943 28.9284 8.27065 29.7148 8.80635 30.2337C9.15805 30.5859 9.40062 30.5605 9.53471 30.1583C9.63511 30.0248 9.68127 29.5304 9.67256 28.6772C9.66392 27.8239 9.67641 27.246 9.71048 26.9452C9.84409 25.9906 10.2414 24.8106 10.9029 23.4044C11.564 21.9976 12.0872 21.2443 12.4725 21.1444C12.1713 20.6596 12.0748 20.1321 12.1838 19.5623C12.2924 18.9935 12.4682 18.5077 12.7113 18.1056C12.954 17.7044 13.2009 17.2394 13.4522 16.7128C13.7035 16.1853 13.8288 15.7125 13.8288 15.2935C13.8288 15.1768 13.837 15.0923 13.8538 15.0422C13.9037 14.8924 14.1133 15.0764 14.4818 15.5943C15.1847 16.633 15.7121 17.2441 16.0638 17.4276C16.4319 17.6289 16.8422 17.6208 17.2942 17.4032C17.7462 17.1855 18.3027 16.8252 18.9642 16.3231C19.6253 15.821 20.1904 15.4531 20.6592 15.2176C20.7097 15.2018 20.7889 15.1638 20.898 15.1047C21.0066 15.0471 21.0902 15.0048 21.1492 14.9793C21.2079 14.9548 21.2833 14.9163 21.3751 14.8664C21.4668 14.8164 21.5384 14.7742 21.5884 14.741C21.6384 14.7079 21.6888 14.6704 21.7388 14.6281C21.7888 14.5859 21.8223 14.5445 21.8392 14.5028C21.8555 14.4605 21.8641 14.4235 21.8641 14.3899C21.8305 14.2391 21.7593 14.1468 21.6508 14.1132C21.5416 14.08 21.3952 14.1007 21.2111 14.1761C21.0266 14.2516 20.822 14.3515 20.5957 14.4773C20.3698 14.6027 20.1186 14.7459 19.8423 14.904C19.566 15.064 19.2855 15.21 19.001 15.3436C18.7162 15.4781 18.4149 15.5949 18.0968 15.6958C17.7787 15.7957 17.4775 15.8548 17.1931 15.8712C16.4897 15.889 15.929 15.7044 15.5106 15.3191C15.2425 15.0678 15.1003 14.9093 15.0835 14.8416C15.0667 14.7748 15.1421 14.7595 15.3097 14.7917C16.2135 14.9093 16.8745 14.9261 17.2935 14.8416C17.7288 14.7748 18.3145 14.5826 19.051 14.2651C19.2019 14.1983 19.5824 14.0344 20.1935 13.7745C20.8041 13.5155 21.2774 13.3349 21.6122 13.2349C21.813 13.185 21.9514 13.1057 22.0263 12.9966C22.1012 12.8876 22.1267 12.7876 22.1018 12.6954C22.0768 12.6031 22.0219 12.5316 21.9384 12.4815C21.7538 12.3816 21.5872 12.4484 21.4363 12.6828C21.3522 12.8327 21.1764 12.9802 20.9088 13.1224C20.6407 13.2647 20.3942 13.3737 20.1678 13.4492C19.9421 13.5237 19.6528 13.6121 19.3016 13.712C18.95 13.8129 18.7573 13.872 18.7242 13.8883C17.8032 14.1727 16.9494 14.2981 16.1629 14.265C15.7944 14.2482 15.4975 14.1943 15.2717 14.1011C15.0459 14.0098 14.8907 13.8999 14.8071 13.7744C14.723 13.649 14.5895 13.4909 14.4055 13.2978C14.221 13.1056 14.012 12.9428 13.7775 12.8083C13.6098 12.7247 13.5474 12.5739 13.5892 12.3562C13.6305 12.1386 13.7607 11.9127 13.9783 11.6783C13.9946 11.6615 14.1666 11.5577 14.4934 11.3645C14.8196 11.1723 15.0497 10.9749 15.1837 10.7741C15.3341 10.5406 15.5941 10.2975 15.962 10.0463C15.9783 9.97948 15.9908 9.795 15.9995 9.49426C16.0077 9.19202 15.9279 8.86631 15.7607 8.51414C15.5931 8.16292 15.3673 7.98762 15.0829 7.98762C14.6812 7.97082 14.3963 8.08755 14.2291 8.33884C14.0614 8.59013 13.986 8.89998 14.0034 9.26754C14.0197 9.5865 14.0994 9.8666 14.2422 10.1093C14.3844 10.3524 14.5141 10.473 14.6314 10.473C14.8154 10.4562 14.874 10.5229 14.8072 10.6742C14.7068 10.8587 14.5723 10.9755 14.4056 11.0255C14.2884 11.0596 14.1586 10.9462 14.0165 10.6873C13.8742 10.4283 13.7652 10.1146 13.6902 9.74562C13.6152 9.37666 13.5855 9.06673 13.6023 8.81599C13.6354 8.29802 13.7738 7.79984 14.0164 7.3223C14.259 6.84571 14.6063 6.61515 15.0584 6.63195C15.5269 6.64977 15.9035 6.93316 16.1885 7.48614C16.4729 8.03818 16.607 8.79149 16.5901 9.74617C16.6401 9.86393 16.7698 9.90522 16.9793 9.87154C17.1882 9.83841 17.4645 9.83315 17.808 9.85859C18.1511 9.88308 18.398 9.97148 18.5489 10.1224C18.5652 10.1224 18.5738 9.99699 18.5738 9.7457C18.2726 7.63561 19.0172 6.51474 20.8088 6.38018C21.0764 6.43011 21.3023 6.49307 21.4868 6.56851C21.6708 6.64396 21.8673 6.7698 22.0768 6.94517C22.2858 7.12055 22.4616 7.37663 22.6043 7.71152C22.746 8.04681 22.8594 8.46484 22.9435 8.96687C22.9435 9.05142 22.9435 9.36135 22.9435 9.89556C22.9435 10.4322 22.8344 10.7334 22.6168 10.7998C22.2656 10.9174 22.0143 10.9127 21.8634 10.7867C21.7131 10.6614 21.7294 10.4394 21.9134 10.1218C22.0807 9.70292 22.0474 9.21761 21.813 8.6651C21.5786 8.11307 21.1515 7.86186 20.5322 7.91178C20.1137 7.92858 19.8121 8.15491 19.628 8.58966C19.4435 9.02496 19.3768 9.45202 19.4272 9.87052C19.4772 10.2895 19.5694 10.5062 19.7034 10.523C19.8038 10.5408 20.1008 10.6738 20.5947 10.9251C21.0886 11.1764 21.4609 11.3263 21.7122 11.3772C22.3651 11.5108 22.7375 11.7208 22.8297 12.0052C22.9214 12.2896 22.8839 12.7037 22.7168 13.2481C22.5491 13.7925 22.4992 14.2397 22.5659 14.5909C22.6328 14.9599 22.7581 15.2942 22.9426 15.5955C23.1266 15.8977 23.3231 16.1735 23.5326 16.4243C23.7416 16.6756 23.9886 17.1455 24.2735 17.831C24.5579 18.5176 24.8174 19.3799 25.0518 20.4177C25.0681 20.4345 25.1311 20.4922 25.2401 20.5931C25.3487 20.693 25.4572 20.8188 25.5663 20.9697C25.6749 21.1197 25.8051 21.3257 25.9554 21.5847C26.1058 21.8446 26.2692 22.2251 26.445 22.7272C26.6208 23.2293 26.7842 23.8072 26.9345 24.4597C27.1185 25.2307 27.2146 26.1263 27.2233 27.1463C27.2315 28.1682 27.2987 28.8668 27.4241 29.2434C27.5496 29.6201 27.8719 29.7753 28.3908 29.7085C29.0437 29.6753 29.4617 29.3241 29.6461 28.653C30.1986 26.712 29.7465 24.3843 28.2903 21.6732C27.7378 20.6176 27.2607 19.9234 26.8591 19.589C27.4448 19.9234 28.0477 20.5513 28.667 21.4724C29.2863 22.3934 29.6797 23.2548 29.8474 24.0591C29.8637 24.1427 29.9103 24.3651 29.9853 24.7241C30.0608 25.0838 30.1021 25.2938 30.1108 25.3519C30.1189 25.4106 30.152 25.5826 30.2111 25.867C30.2697 26.1514 30.299 26.336 30.299 26.419C30.299 26.5036 30.3072 26.666 30.324 26.9086C30.3403 27.1517 30.3365 27.34 30.3115 27.4736C30.2865 27.6081 30.2615 27.7873 30.2361 28.0141C30.2111 28.2399 30.1689 28.4574 30.1107 28.6666C30.0516 28.8765 29.9891 29.1062 29.9224 29.3569C30.8429 29.759 31.3036 30.1103 31.3036 30.4115C30.952 30.1281 30.4499 29.9397 29.797 29.8466C29.1442 29.7553 28.5372 29.8427 27.9766 30.1103C27.4155 30.3789 27.1268 30.8223 27.1104 31.4416C26.5079 31.4416 26.0809 31.5925 25.8296 31.8937C25.4612 32.329 25.2685 32.9185 25.2522 33.6642C25.2381 34.4074 25.3005 35.2184 25.4432 36.0971ZM15.0849 8.83977C15.035 8.82297 14.9927 8.77297 14.9595 8.68889C14.9595 8.53903 15.035 8.48086 15.1853 8.51359C15.2857 8.54774 15.3818 8.67358 15.474 8.89025C15.5658 9.10888 15.5869 9.36009 15.537 9.64357C15.537 9.69358 15.512 9.71901 15.4616 9.71901C15.2771 9.71901 15.2103 9.55227 15.2607 9.2169C15.3112 8.96522 15.2521 8.83977 15.0849 8.83977ZM21.5886 9.24195L21.5381 9.31645C21.4041 9.40099 21.3373 9.41732 21.3373 9.36732C21.27 8.91521 21.1197 8.65623 20.8852 8.58856C20.8515 8.57176 20.8179 8.55543 20.7848 8.53863C20.6676 8.43768 20.7257 8.37959 20.9606 8.36326C21.0106 8.34646 21.086 8.37095 21.1864 8.43768C21.2868 8.50543 21.3786 8.61015 21.4627 8.75146C21.5468 8.89457 21.5886 9.05746 21.5886 9.24195Z" fill="url(#paint2_linear)"/>
<defs>
<linearGradient id="paint0_linear" x1="16.1017" y1="10.3202" x2="16.1017" y2="10.8263" gradientUnits="userSpaceOnUse">
<stop stop-color="#1762A7"/>
<stop offset="1" stop-color="#BC3A80"/>
</linearGradient>
<linearGradient id="paint1_linear" x1="18.3369" y1="10.2701" x2="18.3369" y2="10.676" gradientUnits="userSpaceOnUse">
<stop stop-color="#1762A7"/>
<stop offset="1" stop-color="#BC3A80"/>
</linearGradient>
<linearGradient id="paint2_linear" x1="19.1079" y1="0" x2="19.1079" y2="45.0002" gradientUnits="userSpaceOnUse">
<stop stop-color="#1762A7"/>
<stop offset="1" stop-color="#BC3A80"/>
</linearGradient>
</defs>
</svg>
