<svg width="40" height="40" viewBox="0 0 30 30" fill="none" xmlns="http://www.w3.org/2000/svg">
          <path fill-rule="evenodd" clip-rule="evenodd" d="M30 14.9629C30 22.7601 24.08 29.1713 16.5 29.9258V24.8756C21.3113 24.1501 25 19.9883 25 14.9629C25 9.93744 21.3113 5.77568 16.5 5.05016V0C24.08 0.754449 30 7.16561 30 14.9629ZM13.5 5.05016V0C5.92002 0.754449 0 7.16561 0 14.9629C0 22.7601 5.92002 29.1713 13.5 29.9258V24.8756C8.68874 24.1501 5 19.9883 5 14.9629C5 9.93744 8.68874 5.77568 13.5 5.05016Z" fill="#ffffff"/>
          <rect x="1.5" y="12.4567" width="12" height="5.01237" rx="1" fill="#ffffff"/>
          <rect x="16.5" y="12.4567" width="7.5" height="5.01237" rx="1" fill="#ffffff"/>
          <path d="M16.5 13.9604H19V26.9926H16.5V13.9604Z" fill="#ffffff"/>
          </svg>