<svg width="61" height="60" viewBox="0 0 61 60" fill="none" xmlns="http://www.w3.org/2000/svg">
<path d="M38.6388 44.4878C37.6381 44.4878 36.6459 44.3166 35.6757 43.9755C31.4014 42.4728 27.4339 40.0255 24.202 36.8979C20.9701 33.7704 18.4412 29.9308 16.8885 25.7944C16.3896 24.4651 16.2423 23.0929 16.451 21.7157C16.6465 20.4258 17.1628 19.1735 17.9442 18.0943C18.7291 17.0103 19.7754 16.1087 20.9701 15.487C22.2441 14.824 23.6346 14.4878 25.1031 14.4878C25.5599 14.4878 25.9546 14.7966 26.0504 15.2288L27.5709 22.0956C27.6397 22.4066 27.541 22.7301 27.3087 22.955L24.7105 25.4693C27.1615 30.1851 31.1385 34.0338 36.0115 36.4057L38.6096 33.8914C38.842 33.6666 39.1764 33.5711 39.4977 33.6376L46.5934 35.1091C47.0401 35.2017 47.3591 35.5837 47.3591 36.0257C47.3591 37.4469 47.0117 38.7927 46.3266 40.0255C45.6842 41.1817 44.7525 42.1942 43.6324 42.9538C42.5172 43.7099 41.2232 44.2096 39.8902 44.3988C39.4725 44.4581 39.0548 44.4877 38.6388 44.4878ZM24.3291 16.4037C22.392 16.6107 20.6727 17.5933 19.5309 19.1702C18.247 20.9435 17.9476 23.1246 18.7095 25.1543C21.6946 33.1067 28.1197 39.3244 36.3372 42.2132C38.4345 42.9505 40.6883 42.6609 42.5207 41.4183C44.1503 40.3134 45.1656 38.6495 45.3794 36.7749L39.6071 35.5779L36.8937 38.2037C36.6049 38.4831 36.1662 38.5574 35.7968 38.3893C30.0335 35.7691 25.3685 31.2545 22.6609 25.6772C22.4873 25.3196 22.564 24.8951 22.8527 24.6157L25.5661 21.9899L24.3291 16.4037Z" fill="url(#paint0_linear)"/>
<path fill-rule="evenodd" clip-rule="evenodd" d="M30.866 60C47.4345 60 60.866 46.5685 60.866 30C60.866 13.4315 47.4345 0 30.866 0C14.2974 0 0.865967 13.4315 0.865967 30C0.865967 46.5685 14.2974 60 30.866 60ZM30.866 56C45.2254 56 56.866 44.3594 56.866 30C56.866 15.6406 45.2254 4 30.866 4C16.5066 4 4.86597 15.6406 4.86597 30C4.86597 44.3594 16.5066 56 30.866 56Z" fill="url(#paint1_linear)"/>
<defs>
<linearGradient id="paint0_linear" x1="30.866" y1="0" x2="30.866" y2="60" gradientUnits="userSpaceOnUse">
<stop stop-color="#1762A7"/>
<stop offset="1" stop-color="#BC3A80"/>
</linearGradient>
<linearGradient id="paint1_linear" x1="30.866" y1="0" x2="30.866" y2="60" gradientUnits="userSpaceOnUse">
<stop stop-color="#1762A7"/>
<stop offset="1" stop-color="#BC3A80"/>
</linearGradient>
</defs>
</svg>
